<svg width="21" height="14" viewBox="0 0 21 14" fill="none" xmlns="http://www.w3.org/2000/svg">
<path d="M13.4985 7.10425L20.3637 11.4443V2.5813L13.4985 7.10425Z" fill="white"/>
<path d="M0 2.5813V11.4443L6.86517 7.10425L0 2.5813Z" fill="white"/>
<path d="M19.0909 0H1.27275C0.636386 0 0.133659 0.473296 0.0397949 1.08301L10.1818 7.76483L20.3239 1.08301C20.23 0.473296 19.7273 0 19.0909 0Z" fill="white"/>
<path d="M12.3328 7.87501L10.5318 9.05944C10.4278 9.12743 10.3062 9.16363 10.1818 9.16363C10.0575 9.16363 9.93591 9.12743 9.83184 9.05944L8.03093 7.87183L0.0397949 12.9261C0.138034 13.5307 0.639568 14 1.27275 14H19.0909C19.7233 14 20.2249 13.5303 20.3239 12.9261L12.3328 7.87501Z" fill="white"/>
</svg>
