<svg width="27" height="27" viewBox="0 0 27 27" fill="none" xmlns="http://www.w3.org/2000/svg">
<path d="M15.3031 23.143V14.3465H18.3121L18.7636 10.9174H15.3031V8.72835C15.3031 7.73585 15.5829 7.05946 17.0356 7.05946L18.8854 7.05872V3.99156C18.5655 3.95078 17.4674 3.8573 16.1893 3.8573C13.5206 3.8573 11.6935 5.45509 11.6935 8.38873V10.9174H8.67529V14.3465H11.6935V23.143H15.3031Z" fill="white"/>
<mask id="mask0_302_16" style="mask-type:alpha" maskUnits="userSpaceOnUse" x="8" y="3" width="11" height="21">
<path d="M15.3031 23.143V14.3465H18.3121L18.7636 10.9174H15.3031V8.72835C15.3031 7.73585 15.5829 7.05946 17.0356 7.05946L18.8854 7.05872V3.99156C18.5655 3.95078 17.4674 3.8573 16.1893 3.8573C13.5206 3.8573 11.6935 5.45509 11.6935 8.38873V10.9174H8.67529V14.3465H11.6935V23.143H15.3031Z" fill="white"/>
</mask>
<g mask="url(#mask0_302_16)">
</g>
</svg>
