<svg width="19" height="19" viewBox="0 0 19 19" fill="none" xmlns="http://www.w3.org/2000/svg">
<path d="M9.5 19C14.7454 19 19 14.7454 19 9.5C19 4.25459 14.7454 0 9.5 0C4.25459 0 0 4.25459 0 9.5C0 14.7454 4.25459 19 9.5 19ZM8.82127 4.07127C8.82127 3.89126 8.89278 3.71862 9.02007 3.59133C9.14735 3.46405 9.31999 3.39254 9.5 3.39254C9.68001 3.39254 9.85265 3.46405 9.97993 3.59133C10.1072 3.71862 10.1787 3.89126 10.1787 4.07127V9.17418L13.3171 11.685C13.4266 11.773 13.5061 11.8927 13.5447 12.0278C13.5833 12.1628 13.579 12.3065 13.5324 12.4391C13.4859 12.5716 13.3994 12.6864 13.2849 12.7677C13.1703 12.849 13.0334 12.8927 12.8929 12.8929C12.7386 12.8939 12.5887 12.8415 12.4688 12.7445L9.07584 10.0299C8.99652 9.96624 8.93251 9.88556 8.88852 9.79385C8.84452 9.70214 8.82167 9.60172 8.82164 9.5V4.07127H8.82127Z" fill="white"/>
</svg>
