<svg width="27" height="27" viewBox="0 0 27 27" fill="none" xmlns="http://www.w3.org/2000/svg">
<path fill-rule="evenodd" clip-rule="evenodd" d="M18.2499 2.89331H8.74438C5.51635 2.89331 2.89014 5.51965 2.89014 8.74768V18.2532C2.89014 21.4814 5.51635 24.1076 8.74438 24.1076H18.2499C21.4782 24.1076 24.1044 21.4812 24.1044 18.2532V8.74768C24.1045 5.51965 21.4782 2.89331 18.2499 2.89331ZM22.2247 18.2532C22.2247 20.4435 20.4427 22.2254 18.2525 22.2254H8.74681C6.55664 22.2255 4.7748 20.4435 4.7748 18.2532V8.7477C4.7748 6.55754 6.55664 4.77556 8.74681 4.77556H18.2523C20.4426 4.77556 22.2246 6.55754 22.2246 8.7477V18.2532H22.2247ZM7.93827 13.5005C7.93827 10.4367 10.4307 7.94425 13.4944 7.94425C16.5582 7.94425 19.0506 10.4367 19.0506 13.5005C19.0506 16.5641 16.5582 19.0565 13.4944 19.0565C10.4307 19.0565 7.93827 16.5641 7.93827 13.5005ZM13.4976 17.1432C11.4889 17.1432 9.85458 15.5091 9.85458 13.5004C9.85458 11.4915 11.4888 9.8573 13.4976 9.8573C15.5064 9.8573 17.1406 11.4915 17.1406 13.5004C17.1406 15.5091 15.5062 17.1432 13.4976 17.1432Z" fill="white"/>
<mask id="mask0_302_24" style="mask-type:alpha" maskUnits="userSpaceOnUse" x="2" y="2" width="23" height="23">
<path fill-rule="evenodd" clip-rule="evenodd" d="M18.2499 2.89331H8.74438C5.51635 2.89331 2.89014 5.51965 2.89014 8.74768V18.2532C2.89014 21.4814 5.51635 24.1076 8.74438 24.1076H18.2499C21.4782 24.1076 24.1044 21.4812 24.1044 18.2532V8.74768C24.1045 5.51965 21.4782 2.89331 18.2499 2.89331ZM22.2247 18.2532C22.2247 20.4435 20.4427 22.2254 18.2525 22.2254H8.74681C6.55664 22.2255 4.7748 20.4435 4.7748 18.2532V8.7477C4.7748 6.55754 6.55664 4.77556 8.74681 4.77556H18.2523C20.4426 4.77556 22.2246 6.55754 22.2246 8.7477V18.2532H22.2247ZM7.93827 13.5005C7.93827 10.4367 10.4307 7.94425 13.4944 7.94425C16.5582 7.94425 19.0506 10.4367 19.0506 13.5005C19.0506 16.5641 16.5582 19.0565 13.4944 19.0565C10.4307 19.0565 7.93827 16.5641 7.93827 13.5005ZM13.4976 17.1432C11.4889 17.1432 9.85458 15.5091 9.85458 13.5004C9.85458 11.4915 11.4888 9.8573 13.4976 9.8573C15.5064 9.8573 17.1406 11.4915 17.1406 13.5004C17.1406 15.5091 15.5062 17.1432 13.4976 17.1432Z" fill="white"/>
</mask>
<g mask="url(#mask0_302_24)">
</g>
</svg>
