<svg width="21" height="21" viewBox="0 0 21 21" fill="none" xmlns="http://www.w3.org/2000/svg">
<path d="M18.225 -0.000976562H2.025C0.909263 -0.000976562 0 0.912258 0 2.02402V18.224C0 19.3358 0.909263 20.249 2.025 20.249H18.225C19.3407 20.249 20.25 19.3358 20.25 18.224V2.02402C20.25 0.912258 19.3367 -0.000976562 18.225 -0.000976562ZM6.075 17.2115H3.0375V8.09901H6.075V17.2115ZM4.55426 6.37578C3.54176 6.37578 2.73176 5.56578 2.73176 4.55328C2.73176 3.54078 3.54176 2.73079 4.55426 2.73079C5.56676 2.73079 6.37675 3.54078 6.37675 4.55328C6.37675 5.56578 5.56676 6.37578 4.55426 6.37578ZM17.2125 17.2115H14.175V11.8472C14.175 11.0372 13.4642 10.3265 12.6543 10.3265C11.8443 10.3265 11.1335 11.0372 11.1335 11.8472V17.2115H8.09602V8.09901H11.1335V9.31401C11.6417 8.50401 12.7535 7.89651 13.6667 7.89651C15.5885 7.89651 17.2125 9.51651 17.2125 11.4422V17.2115Z" fill="white"/>
</svg>
