<svg width="17" height="22" viewBox="0 0 17 22" fill="none" xmlns="http://www.w3.org/2000/svg">
<path d="M8.5 0C3.80729 0.00601562 0.00619792 3.69531 0 8.25C0 14.1728 7.91917 21.5909 8.25562 21.9037C8.32099 21.965 8.40828 21.9992 8.49911 21.9992C8.58995 21.9992 8.67724 21.965 8.7426 21.9037C9.08083 21.5909 17 14.1728 17 8.25C16.9938 3.69531 13.1927 0.00601562 8.5 0ZM8.5 12.0312C7.72948 12.0312 6.97626 11.8095 6.33559 11.394C5.69492 10.9785 5.19559 10.388 4.90072 9.69702C4.60585 9.00609 4.5287 8.2458 4.67902 7.51231C4.82935 6.77882 5.20039 6.10507 5.74523 5.57625C6.29007 5.04743 6.98424 4.68731 7.73996 4.54141C8.49568 4.3955 9.279 4.47039 9.99087 4.75658C10.7027 5.04277 11.3112 5.52743 11.7393 6.14925C12.1673 6.77107 12.3958 7.50214 12.3958 8.25C12.3958 9.25285 11.9854 10.2146 11.2548 10.9237C10.5242 11.6329 9.53324 12.0312 8.5 12.0312Z" fill="white"/>
</svg>
