<svg width="19" height="19" viewBox="0 0 19 19" fill="none" xmlns="http://www.w3.org/2000/svg">
<path fill-rule="evenodd" clip-rule="evenodd" d="M18.5874 14.4962C18.8342 14.7023 18.9992 14.8906 18.9992 15.1323C18.9992 15.8325 15.084 19 14.5751 19C14.5335 19 10.4563 18.9321 5.21628 13.7829C0.0678539 8.54368 0 4.46735 0 4.42494C0 3.9173 3.16751 0.000848176 3.86938 0C4.10941 0 4.29771 0.16497 4.50551 0.410517C5.00085 1.00339 7.20526 4.48049 7.10433 5.0598C7.05598 5.33121 6.824 5.53902 6.162 6.09457C5.8356 6.35167 5.52988 6.63399 5.24767 6.93893C5.38273 7.4977 5.58315 8.0386 5.84478 8.55047C6.82096 10.5568 8.44149 12.1781 10.4474 13.1552C10.9593 13.4169 11.5002 13.6173 12.0589 13.7523C12.3639 13.4701 12.6462 13.1644 12.9033 12.838C13.4589 12.1751 13.6667 11.944 13.9381 11.8957C14.5161 11.7947 17.9936 13.997 18.5874 14.4945V14.4962ZM17.819 15.1635C17.4657 14.9031 16.631 14.3532 15.7482 13.8317C15.2511 13.538 14.7715 13.2729 14.392 13.0907C14.2848 13.0392 14.1921 12.9975 14.1142 12.965C14.0169 13.0696 13.8831 13.2259 13.6792 13.4691C13.3923 13.832 13.0777 14.1721 12.7382 14.4863L12.3449 14.8502L11.824 14.7243C11.192 14.5716 10.5802 14.3453 10.0009 14.0501C7.80085 12.976 6.02293 11.1973 4.94986 8.99677C4.65468 8.41758 4.4284 7.80578 4.27566 7.17388L4.14976 6.653L4.51374 6.2597C4.82788 5.92027 5.16787 5.60573 5.53067 5.31892C5.77387 5.11474 5.93015 4.98082 6.03498 4.88339C6.00241 4.80542 5.9607 4.71271 5.90914 4.60539C5.72675 4.22579 5.46146 3.74615 5.16765 3.24908C4.64738 2.36885 4.09856 1.5357 3.83745 1.18056C3.78259 1.22878 3.72231 1.28384 3.65681 1.34597C3.29799 1.68625 2.86262 2.16133 2.43583 2.66723C2.01056 3.17135 1.61165 3.68487 1.32431 4.09412C1.18276 4.29573 1.07845 4.45766 1.01277 4.57281C1.09304 5.32757 1.67705 8.7518 5.92343 13.0757C10.2483 17.323 13.6733 17.907 14.4275 17.9872C14.5427 17.9216 14.7047 17.8173 14.9065 17.6757C15.3157 17.3884 15.8292 16.9895 16.3331 16.5644C16.8389 16.1377 17.3138 15.7025 17.6539 15.3439C17.7159 15.2785 17.7709 15.2183 17.819 15.1635Z" fill="white"/>
<path fill-rule="evenodd" clip-rule="evenodd" d="M14.2495 8.82188H15.6066C15.6062 8.48397 15.5743 8.14933 15.5127 7.82188C15.3116 6.75471 14.7936 5.76394 14.0149 4.98521C13.2362 4.20648 12.2454 3.68847 11.1782 3.48744C10.8508 3.42576 10.5161 3.39392 10.1782 3.39355V4.75064C11.2577 4.75165 12.2926 5.18091 13.0559 5.94419C13.8192 6.70748 14.2485 7.74243 14.2495 8.82188Z" fill="white"/>
<path fill-rule="evenodd" clip-rule="evenodd" d="M17.6422 8.82189H18.9993C18.9989 8.48377 18.9795 8.1501 18.9421 7.82189C18.4786 3.75169 15.2484 0.521473 11.1782 0.0579941C10.85 0.0206206 10.5163 0.00123732 10.1782 0.000854492V1.35794C12.1571 1.36029 14.0542 2.14743 15.4534 3.54668C16.8527 4.94593 17.6398 6.84305 17.6422 8.82189Z" fill="white"/>
</svg>
