<svg width="27" height="27" viewBox="0 0 27 27" fill="none" xmlns="http://www.w3.org/2000/svg">
<path d="M24.1069 6.76756C23.3616 7.09782 22.5619 7.32179 21.7216 7.42178C22.5796 6.90802 23.2363 6.09312 23.5476 5.1251C22.7428 5.60087 21.8545 5.94635 20.908 6.13363C20.15 5.32505 19.0719 4.82141 17.8761 4.82141C15.582 4.82141 13.7218 6.68153 13.7218 8.97442C13.7218 9.29961 13.7585 9.61722 13.8294 9.92094C10.3774 9.74756 7.31648 8.09371 5.26782 5.58062C4.9097 6.19308 4.70598 6.90673 4.70598 7.66852C4.70598 9.10981 5.43991 10.3815 6.55346 11.1256C5.87267 11.1028 5.23238 10.9155 4.67183 10.6042V10.6561C4.67183 12.6681 6.10425 14.3472 8.00359 14.7294C7.6556 14.823 7.28865 14.8749 6.90903 14.8749C6.64078 14.8749 6.38137 14.8483 6.12702 14.7977C6.65593 16.4491 8.18961 17.6499 10.0067 17.6828C8.58568 18.7964 6.79388 19.4582 4.84773 19.4582C4.51241 19.4582 4.18212 19.4379 3.85693 19.4012C5.69555 20.5818 7.87835 21.2702 10.2244 21.2702C17.866 21.2702 22.0431 14.9407 22.0431 9.45148L22.0292 8.9137C22.8453 8.33158 23.5514 7.6002 24.1069 6.76756Z" fill="white"/>
<mask id="mask0_302_20" style="mask-type:alpha" maskUnits="userSpaceOnUse" x="3" y="4" width="22" height="18">
<path d="M24.1069 6.76756C23.3616 7.09782 22.5619 7.32179 21.7216 7.42178C22.5796 6.90802 23.2363 6.09312 23.5476 5.1251C22.7428 5.60087 21.8545 5.94635 20.908 6.13363C20.15 5.32505 19.0719 4.82141 17.8761 4.82141C15.582 4.82141 13.7218 6.68153 13.7218 8.97442C13.7218 9.29961 13.7585 9.61722 13.8294 9.92094C10.3774 9.74756 7.31648 8.09371 5.26782 5.58062C4.9097 6.19308 4.70598 6.90673 4.70598 7.66852C4.70598 9.10981 5.43991 10.3815 6.55346 11.1256C5.87267 11.1028 5.23238 10.9155 4.67183 10.6042V10.6561C4.67183 12.6681 6.10425 14.3472 8.00359 14.7294C7.6556 14.823 7.28865 14.8749 6.90903 14.8749C6.64078 14.8749 6.38137 14.8483 6.12702 14.7977C6.65593 16.4491 8.18961 17.6499 10.0067 17.6828C8.58568 18.7964 6.79388 19.4582 4.84773 19.4582C4.51241 19.4582 4.18212 19.4379 3.85693 19.4012C5.69555 20.5818 7.87835 21.2702 10.2244 21.2702C17.866 21.2702 22.0431 14.9407 22.0431 9.45148L22.0292 8.9137C22.8453 8.33158 23.5514 7.6002 24.1069 6.76756Z" fill="white"/>
</mask>
<g mask="url(#mask0_302_20)">
</g>
</svg>
